<svg width="320" height="98" viewBox="0 0 320 98" fill="none" xmlns="http://www.w3.org/2000/svg">
<path d="M87.704 78.08C83.648 78.08 80.06 77.252 76.94 75.596C73.844 73.916 71.42 71.576 69.668 68.576C67.916 65.552 67.04 62 67.04 57.92V25.196L74.672 25.16V57.524C74.672 59.732 75.044 61.676 75.788 63.356C76.532 65.036 77.528 66.44 78.776 67.568C80.024 68.696 81.416 69.548 82.952 70.124C84.512 70.7 86.096 70.988 87.704 70.988C89.336 70.988 90.92 70.7 92.456 70.124C94.016 69.524 95.42 68.66 96.668 67.532C97.916 66.404 98.9 65 99.62 63.32C100.364 61.64 100.736 59.708 100.736 57.524V25.16H108.368V57.92C108.368 61.976 107.492 65.516 105.74 68.54C103.988 71.564 101.552 73.916 98.432 75.596C95.336 77.252 91.76 78.08 87.704 78.08ZM140.326 77V57.884C140.326 56.372 140.194 54.824 139.93 53.24C139.69 51.632 139.21 50.144 138.49 48.776C137.794 47.408 136.798 46.304 135.502 45.464C134.23 44.624 132.562 44.204 130.498 44.204C129.154 44.204 127.882 44.432 126.682 44.888C125.482 45.32 124.426 46.028 123.514 47.012C122.626 47.996 121.918 49.292 121.39 50.9C120.886 52.508 120.634 54.464 120.634 56.768L115.954 55.004C115.954 51.476 116.614 48.368 117.934 45.68C119.254 42.968 121.15 40.856 123.622 39.344C126.094 37.832 129.082 37.076 132.586 37.076C135.274 37.076 137.53 37.508 139.354 38.372C141.178 39.236 142.654 40.376 143.782 41.792C144.934 43.184 145.81 44.708 146.41 46.364C147.01 48.02 147.418 49.64 147.634 51.224C147.85 52.808 147.958 54.2 147.958 55.4V77H140.326ZM113.002 77V38.12H119.734V49.352H120.634V77H113.002ZM152.655 31.748V24.44H160.179V31.748H152.655ZM152.655 77V38.12H160.179V77H152.655ZM187.838 77C185.39 77.48 182.99 77.684 180.638 77.612C178.286 77.54 176.186 77.084 174.338 76.244C172.49 75.404 171.098 74.084 170.162 72.284C169.322 70.676 168.866 69.044 168.794 67.388C168.746 65.708 168.722 63.812 168.722 61.7V27.32H176.282V61.34C176.282 62.9 176.294 64.256 176.318 65.408C176.366 66.56 176.618 67.532 177.074 68.324C177.938 69.812 179.306 70.664 181.178 70.88C183.074 71.072 185.294 70.988 187.838 70.628V77ZM161.27 44.168V38.12H187.838V44.168H161.27ZM206.122 78.08C202.258 78.08 198.862 77.24 195.934 75.56C193.03 73.856 190.762 71.492 189.13 68.468C187.522 65.42 186.718 61.892 186.718 57.884C186.718 53.636 187.51 49.952 189.094 46.832C190.702 43.712 192.934 41.3 195.79 39.596C198.646 37.892 201.97 37.04 205.762 37.04C209.722 37.04 213.094 37.964 215.878 39.812C218.662 41.636 220.738 44.24 222.106 47.624C223.498 51.008 224.05 55.028 223.762 59.684H216.238V56.948C216.19 52.436 215.326 49.1 213.646 46.94C211.99 44.78 209.458 43.7 206.05 43.7C202.282 43.7 199.45 44.888 197.554 47.264C195.658 49.64 194.71 53.072 194.71 57.56C194.71 61.832 195.658 65.144 197.554 67.496C199.45 69.824 202.186 70.988 205.762 70.988C208.114 70.988 210.142 70.46 211.846 69.404C213.574 68.324 214.918 66.788 215.878 64.796L223.258 67.136C221.746 70.616 219.454 73.316 216.382 75.236C213.31 77.132 209.89 78.08 206.122 78.08ZM192.262 59.684V53.816H220.018V59.684H192.262ZM236.715 78.08C233.835 78.08 231.423 77.552 229.479 76.496C227.535 75.416 226.059 74 225.051 72.248C224.067 70.472 223.575 68.528 223.575 66.416C223.575 64.448 223.923 62.72 224.619 61.232C225.315 59.744 226.347 58.484 227.715 57.452C229.083 56.396 230.763 55.544 232.755 54.896C234.483 54.392 236.439 53.948 238.623 53.564C240.807 53.18 243.099 52.82 245.499 52.484C247.923 52.148 250.323 51.812 252.699 51.476L249.963 52.988C250.011 49.94 249.363 47.684 248.019 46.22C246.699 44.732 244.419 43.988 241.179 43.988C239.139 43.988 237.267 44.468 235.563 45.428C233.859 46.364 232.671 47.924 231.999 50.108L224.979 47.948C225.939 44.612 227.763 41.96 230.451 39.992C233.163 38.024 236.763 37.04 241.251 37.04C244.731 37.04 247.755 37.64 250.323 38.84C252.915 40.016 254.811 41.888 256.011 44.456C256.635 45.728 257.019 47.072 257.163 48.488C257.307 49.904 257.379 51.428 257.379 53.06V77H250.719V68.108L252.015 69.26C250.407 72.236 248.355 74.456 245.859 75.92C243.387 77.36 240.339 78.08 236.715 78.08ZM238.047 71.924C240.183 71.924 242.019 71.552 243.555 70.808C245.091 70.04 246.327 69.068 247.263 67.892C248.199 66.716 248.811 65.492 249.099 64.22C249.507 63.068 249.735 61.772 249.783 60.332C249.855 58.892 249.891 57.74 249.891 56.876L252.339 57.776C249.963 58.136 247.803 58.46 245.859 58.748C243.915 59.036 242.151 59.324 240.567 59.612C239.007 59.876 237.615 60.2 236.391 60.584C235.359 60.944 234.435 61.376 233.619 61.88C232.827 62.384 232.191 62.996 231.711 63.716C231.255 64.436 231.027 65.312 231.027 66.344C231.027 67.352 231.279 68.288 231.783 69.152C232.287 69.992 233.055 70.664 234.087 71.168C235.119 71.672 236.439 71.924 238.047 71.924ZM307.912 77L307.948 52.772C307.948 49.964 307.228 47.78 305.788 46.22C304.348 44.636 302.452 43.844 300.1 43.844C298.66 43.844 297.34 44.18 296.14 44.852C294.964 45.5 294.004 46.484 293.26 47.804C292.54 49.1 292.18 50.732 292.18 52.7L288.544 50.864C288.496 48.128 289.072 45.728 290.272 43.664C291.496 41.6 293.152 40.004 295.24 38.876C297.328 37.724 299.668 37.148 302.26 37.148C306.46 37.148 309.712 38.408 312.016 40.928C314.32 43.448 315.472 46.796 315.472 50.972L315.436 77H307.912ZM261.292 77V38.12H267.988V49.352H268.852V77H261.292ZM284.62 77L284.656 52.916C284.656 50.084 283.936 47.864 282.496 46.256C281.08 44.648 279.172 43.844 276.772 43.844C274.396 43.844 272.476 44.66 271.012 46.292C269.572 47.924 268.852 50.06 268.852 52.7L265.252 50.396C265.252 47.852 265.864 45.584 267.088 43.592C268.312 41.6 269.968 40.028 272.056 38.876C274.144 37.724 276.508 37.148 279.148 37.148C281.908 37.148 284.26 37.736 286.204 38.912C288.148 40.064 289.624 41.684 290.632 43.772C291.664 45.86 292.18 48.284 292.18 51.044L292.144 77H284.62Z" fill="#0095E9"/>
<g filter="url(#filter0_i_52_42)">
<circle cx="27" cy="51" r="27" fill="url(#paint0_linear_52_42)"/>
</g>
<defs>
<filter id="filter0_i_52_42" x="0" y="24" width="54" height="56" filterUnits="userSpaceOnUse" color-interpolation-filters="sRGB">
<feFlood flood-opacity="0" result="BackgroundImageFix"/>
<feBlend mode="normal" in="SourceGraphic" in2="BackgroundImageFix" result="shape"/>
<feColorMatrix in="SourceAlpha" type="matrix" values="0 0 0 0 0 0 0 0 0 0 0 0 0 0 0 0 0 0 127 0" result="hardAlpha"/>
<feOffset dy="2"/>
<feGaussianBlur stdDeviation="2"/>
<feComposite in2="hardAlpha" operator="arithmetic" k2="-1" k3="1"/>
<feColorMatrix type="matrix" values="0 0 0 0 1 0 0 0 0 1 0 0 0 0 1 0 0 0 0.25 0"/>
<feBlend mode="normal" in2="shape" result="effect1_innerShadow_52_42"/>
</filter>
<linearGradient id="paint0_linear_52_42" x1="35" y1="40.5" x2="15.5" y2="75" gradientUnits="userSpaceOnUse">
<stop stop-color="#78D1FF"/>
<stop offset="1" stop-color="#009AF3"/>
</linearGradient>
</defs>
</svg>
